# xmcd
#
# Track frame offsets:
#	150
#	3088
#	17877
#	31639
#	50656
#	71705
#	83238
#	92112
#	112087
#	123851
#	138091
#	150035
#	162375
#	184781
#	199098
#	209189
#	227861
#	239490
#	252506
#	269505
#	284449
#	297087
#	312807
#	329106
#
# Disc length: 4584 seconds
#
# Revision: 1
# Processed by: cddbd v1.5.1PL0 Copyright (c) Steve Scherf et al.
# Submitted via: audiograbber 1.83.01
#
DISCID=6011e618
DTITLE=Johnny Cash - Live At Austin Texas 1994 Disk 1
DYEAR=1994
DGENRE=Country
TTITLE0=Johnny Cash 00 - Opening Guitar Medley
TTITLE1=Johnny Cash 01 - Folsom Prison Blues
TTITLE2=Johnny Cash 02 - Get Rhythm
TTITLE3=Johnny Cash 03 - Sunday Mornig Coming Down
TTITLE4=Johnny Cash 04 - Ghost Riders In The Sky
TTITLE5=Johnny Cash 05 - Cowboys Prayer
TTITLE6=Johnny Cash 06 - Oh Bury Me Not
TTITLE7=Johnny Cash 07 - Big River
TTITLE8=Johnny Cash 08 - I Walk The Line
TTITLE9=Johnny Cash 09 - I Still Miss Someone
TTITLE10=Johnny Cash 10 - Man In Black
TTITLE11=Johnny Cash 11 - The Alamo
TTITLE12=Johnny Cash 12 - Orange Blossom Special
TTITLE13=Johnny Cash 13 - Death And Hell
TTITLE14=Johnny Cash 14 - Delia
TTITLE15=Johnny Cash 15 - Bird On A Wire
TTITLE16=Johnny Cash 16 - The Beast In Me
TTITLE17=Johnny Cash 17 - Tennessee Stud
TTITLE18=Johnny Cash 18 - Down There By The Train
TTITLE19=Johnny Cash 19 - Drive On
TTITLE20=Johnny Cash 20 - Ring Of Fire
TTITLE21=Johnny Cash 21 - Jackson
TTITLE22=Johnny Cash 22 - If I Were A Carpenter
TTITLE23=Johnny Cash 23 - It Ain't Me Babe
EXTD=
EXTT0=
EXTT1=
EXTT2=
EXTT3=
EXTT4=
EXTT5=
EXTT6=
EXTT7=
EXTT8=
EXTT9=
EXTT10=
EXTT11=
EXTT12=
EXTT13=
EXTT14=
EXTT15=
EXTT16=
EXTT17=
EXTT18=
EXTT19=
EXTT20=
EXTT21=
EXTT22=
EXTT23=
PLAYORDER=
